<?xml version="1.0" encoding="utf-8"?>
<svg version="1.1" id="Layer_1" xmlns="http://www.w3.org/2000/svg" xmlns:xlink="http://www.w3.org/1999/xlink" x="0px" y="0px" viewBox="0 0 84 56" enable-background="new 0 0 84 56" xml:space="preserve" width="84" height="56">
<path fill="#BBBBBB" d="M27.5,5.6c-1,0.4-2.1,0.7-3.2,0.9c1.1-0.7,2-1.8,2.4-3.1c-1.1,0.6-2.3,1.1-3.5,1.3c-1-1.1-2.4-1.7-4-1.7
	c-3.1,0-5.5,2.5-5.5,5.5c0,0.4,0,0.9,0.1,1.3C9.2,9.6,5.1,7.4,2.4,4C1.9,4.8,1.6,5.8,1.6,6.8c0,1.9,1,3.6,2.5,4.6
	c-0.9,0-1.8-0.3-2.5-0.7c0,0,0,0,0,0.1c0,2.7,1.9,4.9,4.4,5.4c-0.5,0.1-1,0.2-1.5,0.2c-0.4,0-0.7,0-1-0.1c0.7,2.2,2.7,3.8,5.2,3.8
	c-1.9,1.5-4.3,2.4-6.9,2.4c-0.4,0-0.9,0-1.3-0.1C3,24,5.9,24.9,9,24.9c10.2,0,15.8-8.4,15.8-15.8c0-0.2,0-0.5,0-0.7
	C25.8,7.7,26.8,6.7,27.5,5.6z"/>
<path fill="#BBBBBB" d="M79.5,13.7c0.1-0.2,0.2-0.4,0.2-0.6l-0.3,0.8c-0.9,2-2.8,3.3-6.8,3.7c0.7,0.5,1.4,1.3,1.4,3v4.2
	c0,0,0.1,1,1.1,1.4c0,0,0.6,0.4,0,0.6c0,0-2.7,0.2-2.7-2v-3.2c0,0,0.1-1.2-0.5-1.7v5.3c0,0,0,1.3,0.7,1.8c0,0,0.4,0.8-0.5,0.6
	c0,0-1.8-0.3-1.9-2.4l0-5.4h-0.4l0,5.4c-0.1,2.1-1.9,2.4-1.9,2.4c-1,0.2-0.5-0.6-0.5-0.6c0.7-0.5,0.7-1.8,0.7-1.8v-5.3
	c-0.6,0.4-0.5,1.7-0.5,1.7v3.2c0,2.2-2.7,2-2.7,2c-0.6-0.2,0-0.6,0-0.6c1-0.3,1-1.4,1-1.4v-3c-4.1,0.9-5-2-5-2
	c-0.7-1.7-1.6-2.1-1.6-2.1c-1.3-0.9,0.1-0.9,0.1-0.9c1.5,0.1,2.2,1.5,2.2,1.5c1.4,2.4,3.6,1.5,4.4,1.2c0.2-1,0.8-1.6,1.3-2
	c-3.7-0.4-5.8-1.7-6.9-3.7L59.8,13c-0.4-1.1-0.5-2.3-0.5-3.6c0-1.8,0.7-3.3,1.7-4.4c-0.2-0.4-0.7-2.1,0.2-4.4c0,0,1.4-0.4,4.5,1.7
	c1.3-0.4,2.7-0.5,4.1-0.5c1.3,0,2.5,0.1,3.7,0.4c3-2,4.4-1.6,4.4-1.6c0.8,1.9,0.5,3.4,0.3,4.1c1.2,1.2,1.9,2.7,1.9,4.7
	c0,1.4-0.1,2.6-0.4,3.6"/>
<path fill="#BBBBBB" d="M42,27.5c-7.4,0-13.5-6.1-13.5-13.5S34.6,0.5,42,0.5S55.5,6.6,55.5,14S49.4,27.5,42,27.5z M35.5,23.1
	c1.9,1.4,4.2,2.1,6.5,2.1c1.2,0,2.4-0.2,3.5-0.6c-0.3-2.8-0.8-5.6-1.7-8.2C40.4,17.7,37.5,20,35.5,23.1z M46.1,15.9
	c0.8,2.5,1.3,5.1,1.6,7.7c2.8-1.6,4.7-4.3,5.3-7.5c-1.4-0.4-2.7-0.5-4-0.5C48,15.7,47.1,15.8,46.1,15.9z M30.8,14.5
	c0.1,2.7,1.2,5.1,3,7.1c2.3-3.4,5.6-6,9.4-7.3c-0.2-0.5-0.4-1.1-0.7-1.6c-3.3,1.2-6.7,1.8-10.1,1.8C31.8,14.6,31.3,14.6,30.8,14.5z
	 M49,13.4c1.4,0,2.8,0.2,4.3,0.5c0-2.3-0.7-4.4-2-6.3c-2.1,1.8-4.4,3.2-6.7,4.3c0.3,0.6,0.5,1.2,0.8,1.9
	C46.6,13.5,47.8,13.4,49,13.4z M30.9,12.3c0.4,0,0.9,0.1,1.4,0.1c3.1,0,6.2-0.5,9.1-1.6c-1.2-2.4-2.8-4.6-4.6-6.7
	C33.7,5.7,31.4,8.8,30.9,12.3z M39.1,3.1c1.8,2.1,3.3,4.4,4.5,6.8c2.2-1,4.3-2.3,6.3-4C47.7,3.9,45,2.8,42,2.8
	C41,2.8,40,2.9,39.1,3.1z"/>
<path fill="#DE6868" d="M27.5,33.6c-1,0.4-2.1,0.7-3.2,0.9c1.1-0.7,2-1.8,2.4-3.1c-1.1,0.6-2.3,1.1-3.5,1.3c-1-1.1-2.4-1.7-4-1.7
	c-3.1,0-5.5,2.5-5.5,5.5c0,0.4,0,0.9,0.1,1.3C9.2,37.6,5.1,35.4,2.4,32c-0.5,0.8-0.7,1.8-0.7,2.8c0,1.9,1,3.6,2.5,4.6
	c-0.9,0-1.8-0.3-2.5-0.7c0,0,0,0,0,0.1c0,2.7,1.9,4.9,4.4,5.4c-0.5,0.1-1,0.2-1.5,0.2c-0.4,0-0.7,0-1-0.1c0.7,2.2,2.7,3.8,5.2,3.8
	c-1.9,1.5-4.3,2.4-6.9,2.4c-0.4,0-0.9,0-1.3-0.1C3,52,5.9,52.9,9,52.9c10.2,0,15.8-8.4,15.8-15.8c0-0.2,0-0.5,0-0.7
	C25.8,35.7,26.8,34.7,27.5,33.6z"/>
<path fill="#DE6868" d="M79.5,41.7c0.1-0.2,0.2-0.4,0.2-0.6l-0.3,0.8c-0.9,2-2.8,3.3-6.8,3.7c0.7,0.5,1.4,1.3,1.4,3v4.2
	c0,0,0.1,1,1.1,1.4c0,0,0.6,0.4,0,0.6c0,0-2.7,0.2-2.7-2v-3.2c0,0,0.1-1.2-0.5-1.7v5.3c0,0,0,1.3,0.7,1.8c0,0,0.4,0.8-0.5,0.6
	c0,0-1.8-0.3-1.9-2.4l0-5.4h-0.4l0,5.4c-0.1,2.1-1.9,2.4-1.9,2.4c-1,0.2-0.5-0.6-0.5-0.6c0.7-0.5,0.7-1.8,0.7-1.8v-5.3
	c-0.6,0.4-0.5,1.7-0.5,1.7v3.2c0,2.2-2.7,2-2.7,2c-0.6-0.2,0-0.6,0-0.6c1-0.3,1-1.4,1-1.4v-3c-4.1,0.9-5-2-5-2
	c-0.7-1.7-1.6-2.1-1.6-2.1c-1.3-0.9,0.1-0.9,0.1-0.9c1.5,0.1,2.2,1.5,2.2,1.5c1.4,2.4,3.6,1.5,4.4,1.2c0.2-1,0.8-1.6,1.3-2
	c-3.7-0.4-5.8-1.7-6.9-3.7L59.8,41c-0.4-1.1-0.5-2.3-0.5-3.6c0-1.8,0.7-3.3,1.7-4.4c-0.2-0.4-0.7-2.1,0.2-4.4c0,0,1.4-0.4,4.5,1.7
	c1.3-0.4,2.7-0.5,4.1-0.5c1.3,0,2.5,0.1,3.7,0.4c3-2,4.4-1.6,4.4-1.6c0.8,1.9,0.5,3.4,0.3,4.1c1.2,1.2,1.9,2.7,1.9,4.7
	c0,1.4-0.1,2.6-0.4,3.6"/>
<path fill="#DE6868" d="M42,55.5c-7.4,0-13.5-6.1-13.5-13.5S34.6,28.5,42,28.5S55.5,34.6,55.5,42S49.4,55.5,42,55.5z M35.5,51.1
	c1.9,1.4,4.2,2.1,6.5,2.1c1.2,0,2.4-0.2,3.5-0.6c-0.3-2.8-0.8-5.6-1.7-8.2C40.4,45.7,37.5,48,35.5,51.1z M46.1,43.9
	c0.8,2.5,1.3,5.1,1.6,7.7c2.8-1.6,4.7-4.3,5.3-7.5c-1.4-0.4-2.7-0.5-4-0.5C48,43.7,47.1,43.8,46.1,43.9z M30.8,42.5
	c0.1,2.7,1.2,5.1,3,7.1c2.3-3.4,5.6-6,9.4-7.3c-0.2-0.5-0.4-1.1-0.7-1.6c-3.3,1.2-6.7,1.8-10.1,1.8C31.8,42.6,31.3,42.6,30.8,42.5z
	 M49,41.4c1.4,0,2.8,0.2,4.3,0.5c0-2.3-0.7-4.4-2-6.3c-2.1,1.8-4.4,3.2-6.7,4.3c0.3,0.6,0.5,1.2,0.8,1.9
	C46.6,41.5,47.8,41.4,49,41.4z M30.9,40.3c0.4,0,0.9,0.1,1.4,0.1c3.1,0,6.2-0.5,9.1-1.6c-1.2-2.4-2.8-4.6-4.6-6.7
	C33.7,33.7,31.4,36.8,30.9,40.3z M39.1,31.1c1.8,2.1,3.3,4.4,4.5,6.8c2.2-1,4.3-2.3,6.3-4c-2.1-2.1-4.9-3.2-7.8-3.2
	C41,30.8,40,30.9,39.1,31.1z"/>
</svg>